PathFileType	4	(X/Y/Z)	C:/Users/opensim2020/Desktop/walking_exp_matlab/subject02_walking07_straight_03.trc	
DataRate	CameraRate	NumFrames	NumMarkers	Units	OrigDataRate	OrigDataStartFrame	OrigNumFrames	
100.00	100.00	4	50	mm	100.00	2145	203	
Frame#	Time	LFHD			RFHD			LBHD			RBHD			C7			T10			CLAV			STRN			RBAK			LSHO			LUPA			LELB			LFRM			LWRA			LWRB			LFIN			RSHO			RUPA			RELB			RFRM			RWRA			RWRB			RFIN			LASI			RASI			LPSI			RPSI			LTHI			LKNE			LTIB			LANK			LHEE			LTOE			RTHI			RKNE			RTIB			RANK			RHEE			RTOE			*39			*40			*41			*42			*43			*44			*45			*46			*47			*48			*49			
		X1	Y1	Z1	X2	Y2	Z2	X3	Y3	Z3	X4	Y4	Z4	X5	Y5	Z5	X6	Y6	Z6	X7	Y7	Z7	X8	Y8	Z8	X9	Y9	Z9	X10	Y10	Z10	X11	Y11	Z11	X12	Y12	Z12	X13	Y13	Z13	X14	Y14	Z14	X15	Y15	Z15	X16	Y16	Z16	X17	Y17	Z17	X18	Y18	Z18	X19	Y19	Z19	X20	Y20	Z20	X21	Y21	Z21	X22	Y22	Z22	X23	Y23	Z23	X24	Y24	Z24	X25	Y25	Z25	X26	Y26	Z26	X27	Y27	Z27	X28	Y28	Z28	X29	Y29	Z29	X30	Y30	Z30	X31	Y31	Z31	X32	Y32	Z32	X33	Y33	Z33	X34	Y34	Z34	X35	Y35	Z35	X36	Y36	Z36	X37	Y37	Z37	X38	Y38	Z38	X39	Y39	Z39	X40	Y40	Z40	X41	Y41	Z41	X42	Y42	Z42	X43	Y43	Z43	X44	Y44	Z44	X45	Y45	Z45	X46	Y46	Z46	X47	Y47	Z47	X48	Y48	Z48	X49	Y49	Z49	X50	Y50	Z50	

153	1.520	1385.91980	501.24945	1746.16455	1527.10583	522.71606	1727.33215	1387.37500	400.90872	1633.67322	1528.35596	410.66974	1609.50879	1454.89307	379.67419	1505.61914	1462.18225	339.25504	1230.99268	1432.15710	522.96710	1443.66309	1447.82947	582.02216	1274.00012	1525.77673	334.05884	1335.27063	1268.80957	436.55682	1476.71204	1197.87280	378.59485	1282.02747	1196.89819	345.32327	1145.55981	1184.02466	317.10294	1017.34778	1207.92041	339.84964	878.84198	1181.21094	292.62463	896.48291	1180.03381	288.41141	828.56982	1633.16455	477.51331	1481.83923	1726.01501	501.82401	1294.74365	1751.80920	567.13458	1162.46375	1761.64392	652.53772	1075.01001	1731.12671	755.36230	992.41162	1767.96863	721.55865	964.53467	1764.59485	787.03900	934.17279	1337.13831	588.20020	979.25714	1594.99609	566.91418	955.42059	1398.62866	370.90103	1014.24170	1511.98633	355.77634	1013.26672	1272.88867	588.86768	675.50195	1313.60571	610.03571	476.35663	1323.37122	605.04407	281.66718	1360.53796	661.72015	69.05175	1416.79199	635.46429	42.87540	1336.39758	817.37860	45.24696	1640.76221	420.83963	659.93127	1603.37964	371.02527	456.74445	1589.07874	249.93562	309.75525	1542.25391	154.54045	143.33975	1479.65894	111.51549	106.58357	1568.41846	273.91916	36.91651	1488.14685	394.12302	1774.30042	-3360.26343	2845.17969	1033.99841																											 
154	1.530	1384.56409	510.07553	1747.05811	1525.73352	531.60651	1727.98328	1385.92139	409.72314	1634.57947	1526.54895	419.41257	1610.15442	1453.02856	388.93085	1506.20447	1460.91382	349.46753	1231.11108	1430.64783	531.92670	1444.57825	1445.90417	591.43384	1275.06348	1524.08972	343.70322	1335.26599	1266.72144	445.64459	1476.94812	1195.92896	389.70355	1281.31274	1195.05005	357.92365	1144.54846	1182.25439	331.11981	1015.98584	1206.36157	356.04721	877.90436	1179.41248	308.82465	894.75568	1178.16956	305.57257	826.88696	1632.16187	486.46326	1482.09619	1723.83679	509.40649	1293.85352	1749.75293	574.19708	1161.45129	1760.00000	658.77991	1073.35583	1729.04626	760.38818	989.32806	1765.90979	726.29584	961.85785	1762.45422	791.48535	930.70789	1334.95459	599.72766	980.54010	1592.71130	579.17102	955.68353	1396.36987	382.12439	1015.84015	1510.03198	367.40225	1013.21509	1271.77734	598.69293	676.99756	1312.31140	622.00385	478.36026	1317.41345	614.50519	283.31461	1360.46069	663.02191	70.35458	1415.96838	635.69855	43.40455	1338.44788	818.93042	44.09690	1639.80261	433.21811	660.16565	1605.40930	384.51511	457.31006	1590.41284	259.70990	313.74805	1543.84058	159.97552	149.91240	1480.78833	116.84023	115.17831	1568.84973	274.57523	36.93651	1487.04077	403.17853	1775.34204	-3360.17261	2845.05884	1034.19324																											 
155	1.540	1383.15283	518.79529	1748.13562	1524.34680	540.52539	1728.73303	1384.47266	418.30273	1635.92419	1524.96655	428.19583	1610.96826	1451.79785	397.46387	1507.35632	1459.71790	359.61230	1231.50012	1429.16541	540.74072	1445.66919	1444.17480	601.21521	1276.52747	1522.31445	353.07101	1335.35828	1265.04089	455.15594	1477.66760	1194.56482	400.59775	1281.51794	1193.14551	370.86633	1144.00269	1180.42871	345.87766	1014.93182	1205.03845	372.59244	877.57336	1177.96277	325.15887	893.67267	1176.40356	323.14560	825.79547	1631.16113	495.71658	1482.55945	1721.73706	516.86841	1293.54675	1747.93018	581.27838	1161.08508	1757.91431	664.46851	1071.67053	1727.14929	764.94983	986.39496	1764.00696	730.54370	959.36493	1760.45215	795.22235	927.30890	1332.71350	610.82037	982.15729	1590.03760	590.79767	956.17474	1394.44189	392.71719	1018.07928	1508.60938	378.86438	1013.97827	1271.45630	608.95441	678.76477	1311.30273	633.24231	479.61346	1314.90186	622.07104	284.86844	1359.93579	665.61108	71.22028	1415.35168	636.00195	43.79108	1340.60486	820.79663	43.07858	1639.35986	446.54950	660.88348	1608.00562	399.49240	457.96765	1592.17651	270.95798	317.75583	1545.43347	166.71338	156.84645	1481.87891	123.48174	124.66119	1569.16895	275.51248	36.92891	1485.62146	411.89264	1776.25928	-3360.23120	2845.13232	1033.90588																											 
156	1.550	1381.75098	527.76776	1749.06335	1522.88867	549.41406	1729.55969	1382.86609	427.19977	1636.90283	1523.68835	437.14746	1611.93628	1450.68164	406.88538	1508.30115	1458.34631	369.53665	1231.43042	1427.78540	549.66437	1446.83850	1442.52905	611.20703	1278.12598	1520.70642	362.35938	1335.39307	1263.29102	464.35205	1478.43567	1192.69019	413.90643	1280.94836	1191.09534	384.31543	1143.47021	1178.52893	361.58038	1013.95172	1203.18140	390.42615	877.12982	1176.02319	342.70450	892.37280	1174.48059	341.75217	824.58490	1629.77856	505.03812	1483.41687	1719.82751	524.47211	1293.86487	1745.64404	587.85419	1160.71814	1755.81555	669.91089	1070.31848	1725.03711	769.03625	983.26398	1762.19104	734.24377	957.10181	1758.47229	798.20514	923.72736	1330.27979	621.44415	984.00488	1587.09705	602.83704	957.14850	1392.46558	403.64539	1019.72253	1507.25427	390.91833	1014.63751	1270.85547	620.39764	679.89948	1310.72107	643.42151	480.44141	1314.21484	628.93774	285.66599	1359.86328	666.78882	70.86480	1414.83020	636.09857	43.65054	1341.14624	821.70123	42.15652	1638.59424	460.08878	661.05176	1610.74927	415.46548	458.26923	1594.35913	283.63550	321.71622	1547.18921	174.96811	164.14345	1482.80518	131.79868	134.46182	1569.19568	276.53540	36.74348	1484.22839	420.86725	1777.17896	-3357.39429	2845.75073	1034.19714																											 
